<svg width="197" height="40" viewBox="0 0 197 40" fill="none" xmlns="http://www.w3.org/2000/svg">
<path d="M15.2654 0.0110986C13.9752 0.218755 13.1319 0.419713 12.2084 0.747946C8.44305 2.08097 4.6861 5.12213 2.07606 8.95375C1.26226 10.1528 0.545451 11.5729 0.355706 12.3633C0.313541 12.5509 0.284024 12.6983 0.292458 12.6983C0.305106 12.6983 0.874343 12.303 1.56164 11.8274C6.57933 8.32406 9.45924 6.84368 12.2928 6.28769C13.1403 6.12693 14.848 6.12693 15.5817 6.28769C18.2297 6.87048 22.5348 8.87336 25.0689 10.6887C26.7051 11.8676 28.8555 13.7834 31.8366 16.7375C36.1458 21.0045 38.7348 22.8935 41.2732 23.6304C42.0068 23.8447 43.1411 23.8447 43.8325 23.6237C45.8058 23.0074 47.9901 21.0581 50.2208 17.9232C52.0001 15.4179 53.0079 12.4303 53.1342 9.25516C53.1597 8.6121 53.1553 8.52502 53.1006 8.56523C52.991 8.6255 52.0254 9.59681 51.5277 10.1394C51.2749 10.4207 50.5622 11.2379 49.9466 11.9614C49.331 12.6916 48.5635 13.5624 48.2388 13.904C46.5186 15.7059 45.047 16.3825 42.8247 16.3825C40.9948 16.3825 39.4938 15.9471 37.8957 14.949C36.5127 14.0849 35.8211 13.4753 32.2582 9.99202C28.5097 6.33458 26.9537 4.91448 25.1869 3.56135C23.0239 1.89341 20.6373 0.714452 18.3309 0.158468C17.8755 0.0512902 17.5044 0.0177972 16.5937 0.00440001C15.957 -0.0022986 15.3582 -0.0022986 15.2654 0.0110986Z" fill="#0B4889"/>
<path d="M12.9261 9.55676C10.2359 9.85818 7.41926 11.1041 5.49231 12.8391C3.90688 14.2726 2.51121 16.262 1.35166 18.7338C0.980598 19.5176 0.491477 20.7434 0.179453 21.6544C-0.0904065 22.4516 -0.094623 22.4449 0.436662 22.1769C0.938433 21.9291 1.62151 21.4669 3.12262 20.3683C6.13322 18.1712 7.48252 17.374 9.25348 16.751C10.5986 16.2822 11.6653 16.0946 13.0104 16.0879C15.515 16.0879 17.4209 16.8047 20.5623 18.9281C22.9531 20.5492 25.0697 22.5118 30.4249 28.0716C32.6131 30.3424 33.368 31.0525 34.7047 32.0908C36.4038 33.4039 37.7322 34.1205 39.3217 34.5625C41.0378 35.045 42.4294 35.1053 43.9389 34.7637C46.5193 34.1808 48.7247 32.5331 50.428 29.9139C52.0516 27.4218 52.9453 24.6286 53.4893 20.3348C53.6031 19.4372 53.7338 18.0573 53.7086 18.0573C53.6958 18.0573 53.4893 18.3654 53.2406 18.7405C52.0516 20.5693 49.6397 23.7578 48.5981 24.8832C46.7219 26.9129 43.0533 28.0986 40.6922 27.4419C39.1657 27.0134 37.2051 26.0218 36.0328 25.0908C35.7882 24.8966 34.1102 23.3291 32.3011 21.6075C28.8182 18.2917 27.0263 16.6372 25.5126 15.3443C21.5616 11.9616 17.9691 9.91179 15.3717 9.55005C14.8151 9.47637 13.6345 9.47637 12.9261 9.55676Z" fill="#1564B9"/>
<path d="M12.1253 19.2968C10.3459 19.6117 8.84906 20.3485 6.45406 22.1036C4.89816 23.2423 3.96208 24.2203 2.96274 25.7543C2.09836 27.0872 1.40685 28.5274 0.749062 30.3829C0.344274 31.5151 0.344274 31.5284 0.618349 31.2138C1.71044 29.9475 3.51512 28.8021 6.24323 27.6434C9.02616 26.4644 11.5434 25.9619 13.3692 26.2299C14.9125 26.4575 15.8359 27.0338 18.6821 29.5457C20.3771 31.0396 20.8114 31.4012 21.6547 32.0309C24.1678 33.8864 26.588 34.9515 29.2446 35.3668C31.3149 35.6951 32.7906 35.6816 34.0726 35.3401C34.8145 35.1392 34.8145 35.1323 34.3676 34.8042C34.1611 34.6501 33.6213 34.2882 33.1659 34.0003C30.2355 32.1313 28.7639 30.8387 25.7026 27.4356C21.3216 22.559 17.7038 19.7992 15.0347 19.2901C14.4318 19.1763 12.7873 19.183 12.1253 19.2968Z" fill="#247BD8"/>
<path d="M83.6353 32L81.438 26.3359H74.2847L72.0996 32H70L76.9824 14.0801H78.8501L85.7837 32H83.6353ZM80.8154 24.4927L78.728 18.8652C78.6792 18.7188 78.5978 18.4787 78.4839 18.145C78.3781 17.8114 78.2682 17.4655 78.1543 17.1074C78.0404 16.7493 77.9468 16.4604 77.8735 16.2407C77.7922 16.5744 77.7026 16.908 77.605 17.2417C77.5155 17.5672 77.4259 17.8724 77.3364 18.1572C77.2469 18.4339 77.1696 18.6699 77.1045 18.8652L74.9805 24.4927H80.8154ZM89.9951 32H87.9565V13.0059H89.9951V32ZM96.3184 32H94.2798V13.0059H96.3184V32ZM110.979 27.2515C110.979 28.3094 110.715 29.2127 110.186 29.9614C109.665 30.702 108.932 31.2676 107.988 31.6582C107.044 32.0488 105.933 32.2441 104.656 32.2441C103.98 32.2441 103.341 32.2116 102.739 32.1465C102.137 32.0814 101.584 31.9878 101.079 31.8657C100.575 31.7437 100.131 31.5931 99.7485 31.4141V29.4243C100.359 29.6766 101.104 29.9126 101.982 30.1323C102.861 30.3439 103.781 30.4497 104.741 30.4497C105.636 30.4497 106.393 30.3317 107.012 30.0957C107.63 29.8516 108.098 29.5057 108.416 29.0581C108.741 28.6024 108.904 28.0571 108.904 27.4224C108.904 26.812 108.77 26.3034 108.501 25.8965C108.232 25.4814 107.785 25.1071 107.158 24.7734C106.54 24.4316 105.693 24.0695 104.619 23.687C103.862 23.4185 103.195 23.1255 102.617 22.8081C102.039 22.4826 101.555 22.1164 101.165 21.7095C100.774 21.3026 100.477 20.8306 100.273 20.2935C100.078 19.7563 99.9805 19.1419 99.9805 18.4502C99.9805 17.498 100.221 16.6842 100.701 16.0088C101.189 15.3252 101.86 14.8044 102.715 14.4463C103.577 14.0801 104.566 13.897 105.681 13.897C106.633 13.897 107.512 13.9865 108.318 14.1655C109.132 14.3446 109.876 14.5846 110.552 14.8857L109.905 16.668C109.262 16.3994 108.578 16.1756 107.854 15.9966C107.138 15.8175 106.397 15.728 105.632 15.728C104.867 15.728 104.22 15.842 103.691 16.0698C103.171 16.2896 102.772 16.6029 102.495 17.0098C102.218 17.4167 102.08 17.9009 102.08 18.4624C102.08 19.089 102.21 19.6099 102.471 20.0249C102.739 20.4399 103.162 20.8102 103.74 21.1357C104.326 21.4531 105.099 21.7868 106.06 22.1367C107.109 22.5192 108 22.9261 108.733 23.3574C109.465 23.7806 110.023 24.3014 110.405 24.9199C110.788 25.5303 110.979 26.3075 110.979 27.2515ZM125.371 18.6211V32H123.711L123.418 30.1201H123.308C123.031 30.584 122.673 30.9746 122.234 31.292C121.794 31.6094 121.298 31.8454 120.745 32C120.199 32.1628 119.618 32.2441 118.999 32.2441C117.941 32.2441 117.054 32.0732 116.338 31.7314C115.622 31.3896 115.081 30.8607 114.714 30.1445C114.356 29.4284 114.177 28.5088 114.177 27.3857V18.6211H116.228V27.2393C116.228 28.3542 116.48 29.1883 116.985 29.7417C117.489 30.2869 118.258 30.5596 119.292 30.5596C120.285 30.5596 121.074 30.3724 121.66 29.998C122.254 29.6237 122.681 29.0744 122.942 28.3501C123.202 27.6177 123.333 26.7225 123.333 25.6646V18.6211H125.371ZM135.735 18.377C136.003 18.377 136.284 18.3932 136.577 18.4258C136.87 18.4502 137.131 18.4868 137.358 18.5356L137.102 20.4155C136.882 20.3586 136.638 20.3138 136.37 20.2812C136.101 20.2487 135.849 20.2324 135.613 20.2324C135.076 20.2324 134.567 20.3423 134.087 20.562C133.615 20.7736 133.2 21.0828 132.842 21.4897C132.484 21.8885 132.203 22.3727 132 22.9424C131.796 23.5039 131.694 24.1305 131.694 24.8223V32H129.656V18.6211H131.34L131.56 21.0869H131.646C131.922 20.5905 132.256 20.1388 132.646 19.7319C133.037 19.3169 133.489 18.9873 134.001 18.7432C134.522 18.499 135.1 18.377 135.735 18.377ZM143.621 38.0059C141.863 38.0059 140.508 37.6763 139.556 37.0171C138.604 36.366 138.127 35.4505 138.127 34.2705C138.127 33.4323 138.392 32.7161 138.921 32.1221C139.458 31.528 140.199 31.1333 141.143 30.938C140.793 30.7752 140.492 30.5311 140.239 30.2056C139.995 29.88 139.873 29.5057 139.873 29.0825C139.873 28.5942 140.007 28.167 140.276 27.8008C140.553 27.4264 140.972 27.0684 141.533 26.7266C140.833 26.4417 140.264 25.9616 139.824 25.2861C139.393 24.6025 139.177 23.8091 139.177 22.9058C139.177 21.9455 139.377 21.1276 139.775 20.4521C140.174 19.7686 140.752 19.2477 141.509 18.8896C142.266 18.5316 143.181 18.3525 144.255 18.3525C144.491 18.3525 144.727 18.3647 144.963 18.3892C145.208 18.4054 145.439 18.4339 145.659 18.4746C145.879 18.5072 146.07 18.5479 146.233 18.5967H150.823V19.9028L148.357 20.208C148.601 20.5254 148.805 20.9079 148.967 21.3555C149.13 21.8031 149.211 22.2995 149.211 22.8447C149.211 24.1794 148.76 25.2414 147.856 26.0308C146.953 26.812 145.712 27.2026 144.133 27.2026C143.759 27.2026 143.376 27.1701 142.986 27.105C142.587 27.3247 142.282 27.5688 142.07 27.8374C141.867 28.106 141.765 28.4152 141.765 28.7651C141.765 29.0256 141.842 29.2331 141.997 29.3877C142.16 29.5423 142.392 29.6562 142.693 29.7295C142.994 29.7946 143.356 29.8271 143.779 29.8271H146.135C147.592 29.8271 148.707 30.1323 149.48 30.7427C150.261 31.353 150.652 32.2441 150.652 33.416C150.652 34.8971 150.05 36.0324 148.845 36.8218C147.641 37.6112 145.899 38.0059 143.621 38.0059ZM143.682 36.4189C144.788 36.4189 145.704 36.305 146.428 36.0771C147.161 35.8574 147.706 35.536 148.064 35.1128C148.43 34.6978 148.613 34.2013 148.613 33.6235C148.613 33.0864 148.491 32.6795 148.247 32.4028C148.003 32.1343 147.645 31.9552 147.173 31.8657C146.701 31.7681 146.123 31.7192 145.439 31.7192H143.12C142.518 31.7192 141.993 31.8128 141.545 32C141.098 32.1872 140.752 32.4639 140.508 32.8301C140.272 33.1963 140.154 33.652 140.154 34.1973C140.154 34.9215 140.459 35.4709 141.069 35.8452C141.68 36.2277 142.55 36.4189 143.682 36.4189ZM144.207 25.7256C145.175 25.7256 145.903 25.4814 146.392 24.9932C146.88 24.5049 147.124 23.7928 147.124 22.8569C147.124 21.856 146.876 21.1073 146.379 20.6108C145.883 20.1063 145.151 19.854 144.182 19.854C143.254 19.854 142.538 20.1144 142.034 20.6353C141.537 21.1479 141.289 21.9007 141.289 22.8936C141.289 23.805 141.541 24.5049 142.046 24.9932C142.55 25.4814 143.271 25.7256 144.207 25.7256ZM158.611 18.377C159.75 18.377 160.727 18.6292 161.541 19.1338C162.354 19.6383 162.977 20.3464 163.408 21.2578C163.84 22.1611 164.055 23.2191 164.055 24.4316V25.689H154.814C154.839 27.2596 155.229 28.4559 155.986 29.2778C156.743 30.0998 157.809 30.5107 159.185 30.5107C160.031 30.5107 160.78 30.4334 161.431 30.2788C162.082 30.1242 162.757 29.8963 163.457 29.5952V31.3774C162.782 31.6785 162.11 31.8983 161.443 32.0366C160.784 32.175 160.002 32.2441 159.099 32.2441C157.813 32.2441 156.69 31.9837 155.73 31.4629C154.778 30.9339 154.037 30.1608 153.508 29.1436C152.979 28.1263 152.715 26.8812 152.715 25.4082C152.715 23.9678 152.955 22.7227 153.435 21.6729C153.923 20.6149 154.607 19.8011 155.486 19.2314C156.373 18.6618 157.415 18.377 158.611 18.377ZM158.586 20.0371C157.504 20.0371 156.641 20.3911 155.999 21.0991C155.356 21.8071 154.973 22.7959 154.851 24.0654H161.931C161.923 23.2679 161.797 22.568 161.553 21.9658C161.317 21.3555 160.955 20.8835 160.466 20.5498C159.978 20.208 159.351 20.0371 158.586 20.0371Z" fill="black"/>
</svg>
